<?xml version="1.0" ?><!DOCTYPE svg  PUBLIC '-//W3C//DTD SVG 1.1//EN'  'http://www.w3.org/Graphics/SVG/1.1/DTD/svg11.dtd'><svg width="80px" height="80px" viewBox="0 0 800 800" enable-background="new 0 0 800 800" id="GUIDE" version="1.1" xml:space="preserve" xmlns="http://www.w3.org/2000/svg" xmlns:cc="http://creativecommons.org/ns#" xmlns:dc="http://purl.org/dc/elements/1.1/" xmlns:inkscape="http://www.inkscape.org/namespaces/inkscape" xmlns:rdf="http://www.w3.org/1999/02/22-rdf-syntax-ns#" xmlns:sodipodi="http://sodipodi.sourceforge.net/DTD/sodipodi-0.dtd" xmlns:svg="http://www.w3.org/2000/svg" xmlns:xlink="http://www.w3.org/1999/xlink"><g><g><path d="M689.861,762.52H43.427c-11.046,0-20-8.953-20-20v-72.432c0-5.303,2.107-10.391,5.858-14.141    c51.399-51.4,119.739-79.707,192.428-79.707c57.578,0,112.424,17.758,158.286,50.689V243.124c0-11.046,8.954-20,20-20    c11.045,0,20,8.954,20,20v426.964c0,8.09-4.873,15.383-12.348,18.479c-7.473,3.096-16.075,1.385-21.794-4.336    c-88.582-88.582-231.533-90.465-322.431-5.658v43.947h626.434c11.047,0,20,8.955,20,20    C709.861,753.566,700.908,762.52,689.861,762.52z"/></g><g><path d="M756.572,762.52h-5.877c-11.047,0-20-8.953-20-20c0-11.045,8.953-20,20-20h5.877c11.047,0,20,8.955,20,20    C776.572,753.566,767.619,762.52,756.572,762.52z"/></g><g><path d="M756.576,690.09c-5.205,0-10.318-2.033-14.146-5.859c-67.463-67.461-171.348-86.76-258.504-48.021    c-10.094,4.486-21.914-0.061-26.4-10.154s0.061-21.912,10.154-26.398c49.729-22.104,104.445-28.756,158.236-19.238    c40.258,7.123,77.848,23,110.656,46.529V139.812c-90.896-84.806-233.848-82.922-322.432,5.657c-7.811,7.811-20.472,7.81-28.283,0    c-88.582-88.58-231.533-90.464-322.431-5.657v423.221c0,11.047-8.954,20-20,20s-20-8.953-20-20V131.329    c0-5.305,2.107-10.392,5.858-14.142C80.685,65.787,149.023,37.48,221.713,37.48c66.207,0,128.81,23.486,178.286,66.512    C449.473,60.969,512.082,37.48,578.285,37.48c0.004,0-0.004,0,0,0c72.691,0,141.029,28.307,192.43,79.706    c3.75,3.751,5.857,8.838,5.857,14.143v538.759c0,8.09-4.873,15.383-12.346,18.479C761.752,689.592,759.152,690.09,756.576,690.09z    "/></g><g><g><path d="M324.991,239.373c-2.735,0-5.514-0.564-8.172-1.756c-1.834-0.822-3.703-1.632-5.558-2.405     c-10.193-4.255-15.008-15.967-10.753-26.161c4.254-10.193,15.967-15.008,26.16-10.753c2.175,0.908,4.367,1.857,6.518,2.821     c10.079,4.52,14.585,16.354,10.065,26.433C339.923,234.972,332.629,239.373,324.991,239.373z"/></g><g><path d="M118.427,239.377c-7.638,0-14.93-4.397-18.259-11.816c-4.522-10.078-0.019-21.913,10.059-26.436     c47.997-21.538,100.96-28.667,153.164-20.617c10.916,1.684,18.401,11.898,16.718,22.814     c-1.684,10.917-11.901,18.401-22.814,16.719c-44.56-6.871-89.752-0.793-130.69,17.578     C123.945,238.813,121.164,239.377,118.427,239.377z"/></g><g><path d="M324.994,379.21c-2.737,0-5.517-0.564-8.176-1.758c-40.946-18.373-86.146-24.45-130.712-17.573     c-10.916,1.687-21.131-5.799-22.816-16.716c-1.684-10.916,5.799-21.131,16.716-22.816c52.212-8.057,105.184-0.929,153.187,20.611     c10.078,4.522,14.582,16.357,10.06,26.435C339.924,374.812,332.63,379.21,324.994,379.21z"/></g><g><path d="M118.427,379.212c-7.638,0-14.93-4.397-18.259-11.817c-4.522-10.077-0.019-21.913,10.06-26.435     c2.171-0.975,4.374-1.928,6.547-2.835c10.193-4.253,21.906,0.563,26.159,10.757c4.253,10.194-0.563,21.906-10.757,26.159     c-1.849,0.771-3.724,1.583-5.574,2.413C123.945,378.648,121.164,379.212,118.427,379.212z"/></g><g><path d="M324.992,519.043c-2.737,0-5.52-0.565-8.179-1.76c-1.836-0.824-3.699-1.631-5.537-2.398     c-10.193-4.254-15.009-15.966-10.754-26.16c4.253-10.192,15.965-15.008,26.159-10.754c2.164,0.903,4.354,1.852,6.513,2.82     c10.077,4.523,14.579,16.359,10.056,26.438C339.919,514.646,332.627,519.043,324.992,519.043z"/></g><g><path d="M118.429,519.047c-7.638,0-14.929-4.398-18.259-11.816c-4.522-10.078-0.019-21.914,10.059-26.436     c48.009-21.545,100.987-28.672,153.207-20.609c10.916,1.684,18.399,11.9,16.714,22.816     c-1.685,10.916-11.898,18.399-22.817,16.715c-44.572-6.881-89.777-0.805-130.727,17.572     C123.948,518.481,121.166,519.047,118.429,519.047z"/></g></g><g><g><path d="M475.008,239.373c-7.639,0-14.932-4.4-18.26-11.821c-4.52-10.078-0.014-21.913,10.064-26.433     c2.15-0.964,4.344-1.913,6.518-2.821c10.193-4.255,21.906,0.56,26.16,10.753c4.256,10.193-0.559,21.906-10.752,26.161     c-1.855,0.773-3.725,1.583-5.559,2.405C480.523,238.808,477.742,239.373,475.008,239.373z"/></g><g><path d="M681.572,239.377c-2.738,0-5.518-0.564-8.178-1.758c-40.939-18.371-86.131-24.45-130.689-17.578     c-10.916,1.683-21.131-5.802-22.814-16.719c-1.684-10.916,5.801-21.131,16.717-22.814c52.205-8.051,105.168-0.921,153.164,20.617     c10.078,4.522,14.58,16.357,10.059,26.436C696.502,234.979,689.209,239.377,681.572,239.377z"/></g><g><path d="M475.006,379.21c-7.639,0-14.93-4.397-18.26-11.817c-4.521-10.077-0.018-21.913,10.061-26.435     c48.004-21.541,100.973-28.668,153.186-20.611c10.918,1.685,18.4,11.9,16.717,22.816c-1.686,10.917-11.9,18.399-22.816,16.716     c-44.564-6.877-89.766-0.8-130.711,17.573C480.523,378.646,477.742,379.21,475.006,379.21z"/></g><g><path d="M681.572,379.212c-2.738,0-5.518-0.564-8.176-1.757c-1.852-0.83-3.727-1.642-5.574-2.413     c-10.195-4.253-15.01-15.965-10.758-26.159c4.254-10.194,15.967-15.01,26.16-10.757c2.172,0.907,4.375,1.86,6.547,2.835     c10.076,4.521,14.58,16.357,10.059,26.435C696.502,374.814,689.209,379.212,681.572,379.212z"/></g><g><path d="M475.008,519.043c-7.637,0-14.928-4.396-18.258-11.814c-4.523-10.078-0.021-21.914,10.055-26.438     c2.158-0.969,4.35-1.917,6.514-2.82c10.193-4.254,21.906,0.561,26.158,10.754c4.256,10.194-0.561,21.906-10.754,26.16     c-1.838,0.768-3.701,1.574-5.537,2.398C480.527,518.477,477.744,519.043,475.008,519.043z"/></g><g><path d="M681.57,519.047c-2.738,0-5.518-0.565-8.178-1.758c-40.949-18.377-86.154-24.453-130.727-17.572     c-10.918,1.684-21.133-5.799-22.816-16.715c-1.686-10.916,5.797-21.133,16.713-22.816c52.221-8.063,105.197-0.936,153.207,20.609     c10.078,4.521,14.58,16.357,10.059,26.436C696.5,514.648,689.207,519.047,681.57,519.047z"/></g></g></g></svg>
