<svg xmlns="http://www.w3.org/2000/svg" height="20" width="20" fill="rgb(156, 163, 143)"><path d="M10 18q-1.646 0-3.104-.625-1.458-.625-2.552-1.719t-1.719-2.552Q2 11.646 2 10q0-1.667.625-3.115.625-1.447 1.719-2.541Q5.438 3.25 6.896 2.625T10 2q1.667 0 3.115.625 1.447.625 2.541 1.719 1.094 1.094 1.719 2.541Q18 8.333 18 10v1.25q0 1.146-.802 1.948T15.25 14q-.708 0-1.302-.354-.594-.354-1.01-.938-.584.604-1.344.948Q10.833 14 10 14q-1.667 0-2.833-1.167Q6 11.667 6 10q0-1.667 1.167-2.833Q8.333 6 10 6q1.667 0 2.833 1.167Q14 8.333 14 10v1.25q0 .521.365.885.364.365.885.365t.885-.365q.365-.364.365-.885V10q0-2.708-1.896-4.604T10 3.5q-2.708 0-4.604 1.896T3.5 10q0 2.708 1.896 4.604T10 16.5h4V18Zm0-5.5q1.042 0 1.771-.729.729-.729.729-1.771 0-1.042-.729-1.771Q11.042 7.5 10 7.5q-1.042 0-1.771.729Q7.5 8.958 7.5 10q0 1.042.729 1.771.729.729 1.771.729Z"/></svg>