<?xml version="1.0" ?><!DOCTYPE svg  PUBLIC '-//W3C//DTD SVG 1.1//EN'  'http://www.w3.org/Graphics/SVG/1.1/DTD/svg11.dtd'><svg width="80px" height="80px" viewBox="0 0 800 800" enable-background="new 0 0 800 800" id="GUIDE" version="1.1" xml:space="preserve" xmlns="http://www.w3.org/2000/svg" xmlns:cc="http://creativecommons.org/ns#" xmlns:dc="http://purl.org/dc/elements/1.1/" xmlns:inkscape="http://www.inkscape.org/namespaces/inkscape" xmlns:rdf="http://www.w3.org/1999/02/22-rdf-syntax-ns#" xmlns:sodipodi="http://sodipodi.sourceforge.net/DTD/sodipodi-0.dtd" xmlns:svg="http://www.w3.org/2000/svg" xmlns:xlink="http://www.w3.org/1999/xlink"><g><path d="M746.972,253.414c-18.967-44.844-46.117-85.114-80.694-119.692C631.7,99.145,591.43,71.996,546.585,53.028   C500.146,33.386,450.828,23.427,400,23.427s-100.146,9.959-146.585,29.601C208.57,71.996,168.3,99.145,133.723,133.722   C99.146,168.3,71.996,208.57,53.028,253.414C33.386,299.853,23.427,349.171,23.427,400c0,50.828,9.959,100.146,29.602,146.586   c18.967,44.844,46.117,85.114,80.694,119.691c34.577,34.578,74.848,61.727,119.692,80.695   c46.438,19.641,95.757,29.601,146.585,29.601s100.146-9.96,146.585-29.601c44.845-18.969,85.115-46.117,119.692-80.695   c34.577-34.577,61.728-74.848,80.694-119.691c19.643-46.439,29.602-95.758,29.602-146.586   C776.573,349.171,766.614,299.853,746.972,253.414z M651.542,623.36c-50.643-57.158-79.406-129.281-83.955-203.36h168.375   C731.38,497.793,700.26,568.557,651.542,623.36z M735.962,380H567.491c2.309-40.658,11.974-81.202,29.405-119.505   c4.575-10.053,0.134-21.913-9.919-26.488c-10.055-4.577-21.914-0.134-26.488,9.919c-19.678,43.238-30.865,89.27-33.307,136.073H420   V64.038C589.69,74.033,725.967,210.309,735.962,380z M380,64.038V380H272.766c-0.794-14.665-2.431-29.35-4.944-43.995   c-12.069-70.34-43.414-134.825-91.018-187.693C231.585,99.678,302.285,68.615,380,64.038z M148.459,176.639   c50.667,57.18,79.433,129.291,83.974,203.361H64.038C68.62,302.207,99.74,231.442,148.459,176.639z M420,735.963V481.238   c0-11.046-8.954-20-20-20s-20,8.954-20,20v254.725C210.31,725.967,74.033,589.691,64.038,420h168.485   c-2.326,40.843-12.075,81.574-29.665,120.043c-4.593,10.045-0.173,21.912,9.872,26.506c2.696,1.232,5.522,1.815,8.305,1.815   c7.586,0,14.84-4.339,18.201-11.688c19.85-43.41,31.127-89.65,33.578-136.676h254.423c0.799,14.773,2.453,29.566,4.997,44.316   c12.11,70.213,43.436,134.588,90.963,187.371C568.415,700.322,497.715,731.385,420,735.963z"/><path d="M202.372,584.846c-9.109-6.246-21.558-3.925-27.805,5.186c-1.177,1.717-2.372,3.426-3.585,5.127   c-6.416,8.99-4.328,21.48,4.663,27.896c3.522,2.514,7.58,3.721,11.6,3.721c6.244,0,12.396-2.915,16.298-8.385   c1.358-1.902,2.697-3.816,4.016-5.74C213.805,603.54,211.483,591.092,202.372,584.846z"/><path d="M597.304,215.68c3.452,2.358,7.379,3.489,11.266,3.489c6.384,0,12.658-3.05,16.531-8.718   c1.175-1.719,2.366-3.429,3.576-5.131c6.397-9.004,4.285-21.49-4.719-27.888c-9.005-6.398-21.49-4.285-27.889,4.719   c-1.351,1.901-2.683,3.813-3.994,5.732C585.843,197.003,588.185,209.448,597.304,215.68z"/></g></svg>
