<?xml version="1.0" standalone="no"?>
<!DOCTYPE svg PUBLIC "-//W3C//DTD SVG 20010904//EN"
 "http://www.w3.org/TR/2001/REC-SVG-20010904/DTD/svg10.dtd">
<svg version="1.0" xmlns="http://www.w3.org/2000/svg"
 width="1952.000000pt" height="1952.000000pt" viewBox="0 0 1952.000000 1952.000000"
 preserveAspectRatio="xMidYMid meet">
<metadata>
Created by potrace 1.14, written by Peter Selinger 2001-2017
</metadata>
<g transform="translate(0.000000,1952.000000) scale(0.100000,-0.100000)"
fill="#000000" stroke="none">
<path d="M11406 13203 c-1 -2 -40 -5 -87 -8 -46 -3 -100 -7 -119 -10 -19 -3
-51 -7 -70 -9 -28 -4 -125 -24 -240 -51 -61 -14 -217 -88 -295 -139 -82 -54
-252 -226 -238 -240 4 -3 1 -6 -5 -6 -12 0 -72 -106 -72 -127 0 -7 -3 -13 -7
-13 -8 0 -40 -95 -49 -145 -3 -16 -9 -46 -13 -66 -13 -57 -5 -267 12 -326 8
-29 13 -53 11 -53 -3 0 1 -10 8 -22 7 -13 12 -25 13 -28 1 -12 60 -126 71
-138 7 -6 15 -21 19 -31 3 -11 12 -22 20 -25 8 -3 15 -10 15 -16 0 -9 60 -69
135 -135 28 -24 199 -135 209 -135 3 0 40 -16 83 -36 102 -47 240 -99 285
-108 23 -4 102 -28 139 -42 20 -7 39 -10 43 -7 3 3 11 1 18 -5 7 -6 16 -10 21
-10 37 -1 238 -52 347 -88 196 -65 304 -154 326 -269 12 -63 11 -87 -2 -135
-18 -69 -41 -105 -92 -151 -71 -62 -134 -90 -244 -106 -95 -13 -275 8 -313 37
-5 4 -21 11 -35 15 -47 15 -142 95 -183 156 -36 54 -70 130 -83 191 -3 13 -7
30 -9 38 -2 8 -7 36 -10 62 -4 26 -11 46 -14 43 -4 -2 -52 -6 -106 -9 -176
-10 -259 -17 -267 -22 -4 -3 -8 0 -8 6 0 6 -5 8 -12 4 -15 -9 -26 -11 -158
-18 -58 -3 -139 -8 -180 -11 -137 -11 -175 -13 -188 -14 -7 -1 -11 -5 -7 -10
3 -6 8 -29 10 -53 11 -106 48 -253 81 -328 45 -99 70 -149 96 -187 15 -23 28
-44 28 -48 0 -4 6 -12 13 -20 6 -7 28 -32 47 -56 59 -74 132 -143 203 -192 37
-26 67 -44 67 -41 0 3 13 -4 29 -15 16 -12 34 -21 40 -21 6 0 19 -4 29 -9 57
-29 201 -73 277 -85 22 -4 47 -8 55 -11 17 -4 94 -15 155 -21 247 -24 556 -20
715 11 13 3 42 7 65 10 22 3 48 8 57 11 9 3 25 7 35 9 46 10 184 55 212 69 17
9 33 16 36 16 6 -1 133 69 150 82 87 66 139 110 183 156 28 31 52 54 53 52 0
-3 3 -14 5 -25 3 -11 7 -29 9 -40 28 -166 136 -424 247 -589 112 -167 289
-344 433 -434 22 -14 42 -28 45 -31 9 -11 239 -131 251 -131 4 0 23 -7 43 -15
20 -8 37 -14 39 -13 2 2 11 -3 20 -11 10 -7 17 -11 17 -8 0 3 29 -5 64 -18 35
-13 67 -21 69 -18 3 2 14 0 24 -5 10 -5 38 -13 63 -17 62 -9 80 -12 115 -19
17 -3 45 -6 63 -8 17 -1 32 -4 32 -7 0 -2 -25 -34 -55 -72 -30 -37 -55 -73
-55 -78 0 -6 -3 -11 -7 -11 -8 0 -19 -18 -80 -128 -76 -139 -153 -371 -169
-512 -2 -19 -6 -46 -9 -60 -13 -62 -18 -158 -18 -335 0 -175 3 -244 20 -350 3
-22 7 -49 9 -60 1 -11 3 -22 4 -25 1 -3 3 -9 4 -15 9 -56 19 -102 24 -110 4
-5 8 -19 9 -30 8 -48 51 -161 106 -275 27 -55 111 -194 127 -210 3 -3 18 -23
35 -45 50 -68 165 -178 270 -258 140 -107 431 -220 621 -243 23 -3 53 -7 65
-9 133 -27 642 -27 722 0 7 2 28 6 47 9 120 19 288 71 400 125 114 55 158 83
270 170 71 56 156 146 260 278 9 11 18 26 78 133 14 25 40 81 59 125 l33 80 2
-445 3 -445 1248 0 1247 -1 0 393 c0 216 -3 393 -7 394 -5 0 -344 1 -755 2
-410 1 -750 5 -754 10 -11 10 -11 227 0 227 5 0 5 6 0 13 -5 6 -8 41 -7 77 3
80 3 124 0 273 -1 64 2 117 7 117 5 0 5 6 0 13 -5 6 -8 41 -7 77 3 80 3 124 0
273 -1 64 2 117 7 117 5 0 5 6 0 13 -5 6 -8 41 -7 77 3 80 3 124 0 273 -1 64
2 117 7 117 5 0 5 6 0 13 -5 6 -8 41 -7 77 3 80 3 124 0 273 -1 64 2 117 7
117 5 0 5 6 0 13 -5 6 -8 41 -7 77 4 87 4 121 -1 145 -3 20 -11 20 -489 22
l-487 2 -1 -397 c0 -218 0 -417 1 -442 1 -44 -1 -42 -52 70 -46 99 -118 218
-177 293 -73 95 -322 307 -360 307 -5 0 -11 3 -13 8 -4 9 -193 100 -222 107
-6 1 -18 5 -26 8 -28 11 -195 56 -253 67 l-59 12 95 66 c53 37 93 70 91 74 -3
5 0 8 6 8 6 0 17 6 24 13 8 6 35 30 61 52 56 46 192 181 250 247 39 45 64 75
124 153 17 22 34 45 39 50 17 21 90 131 106 160 9 17 28 48 41 70 35 57 105
197 105 211 0 6 7 17 15 24 8 7 15 19 15 26 0 8 9 33 19 57 27 57 86 241 91
279 1 4 6 22 11 40 6 18 12 42 13 53 2 11 8 47 14 80 22 122 26 174 26 345 -1
208 -6 261 -39 400 -14 58 -27 115 -30 127 -28 122 -186 431 -259 509 -6 6
-18 22 -26 35 -22 34 -197 209 -255 256 -140 112 -344 222 -520 281 -102 34
-288 77 -385 88 -87 10 -431 11 -500 1 -30 -4 -73 -10 -95 -13 -22 -3 -47 -7
-55 -9 -8 -2 -31 -7 -50 -10 -32 -6 -100 -21 -125 -29 -5 -2 -23 -6 -40 -10
-16 -4 -52 -15 -80 -24 -27 -9 -52 -17 -55 -17 -62 -10 -450 -185 -505 -228
-5 -4 -50 -33 -100 -65 -49 -31 -94 -60 -100 -64 -102 -78 -197 -155 -225
-180 -124 -112 -291 -286 -314 -327 -5 -9 -15 -20 -22 -26 -18 -15 -122 -161
-136 -189 -6 -14 -15 -26 -19 -26 -4 0 -11 -9 -14 -20 -3 -11 -12 -26 -18 -33
-27 -29 -177 -324 -177 -348 0 -34 -14 -25 -57 39 -55 82 -162 187 -252 246
-60 39 -239 134 -258 137 -5 1 -18 5 -31 10 -13 5 -26 9 -29 9 -3 0 -19 6 -36
14 -18 8 -79 29 -137 46 -58 17 -114 34 -125 38 -11 3 -24 7 -30 8 -5 1 -104
26 -220 54 -115 28 -219 53 -230 54 -11 1 -27 5 -35 8 -8 4 -36 11 -63 17 -64
15 -152 57 -188 89 -106 94 -72 263 66 335 67 35 95 40 220 39 116 0 159 -8
235 -45 65 -32 83 -47 131 -107 45 -57 75 -125 100 -228 6 -27 14 -31 60 -29
27 1 49 5 49 9 0 4 11 3 24 -2 13 -5 26 -6 29 -3 4 3 34 7 69 9 35 1 101 5
148 8 47 3 128 8 180 11 52 3 131 8 175 11 44 3 95 5 113 4 65 -2 75 7 67 57
-7 49 -12 74 -21 115 -3 15 -5 29 -5 30 1 2 -11 35 -24 73 -14 39 -27 77 -29
85 -5 22 -64 127 -100 180 -44 65 -142 160 -213 208 -34 23 -66 42 -72 42 -5
0 -11 4 -13 8 -8 18 -214 97 -278 106 -9 1 -21 5 -28 10 -6 4 -12 5 -12 2 0
-2 -15 0 -32 5 -18 5 -53 12 -78 15 -25 3 -56 8 -70 10 -82 11 -446 25 -454
17z m4159 -4568 c63 -5 69 -6 124 -19 117 -28 285 -162 345 -276 31 -59 78
-190 69 -190 -3 0 -1 -6 4 -12 6 -7 10 -20 10 -28 1 -8 4 -28 7 -45 28 -131
26 -576 -3 -659 -4 -11 -7 -28 -6 -36 1 -8 -1 -19 -4 -25 -3 -5 -6 -12 -6 -15
-4 -34 -19 -85 -30 -107 -8 -15 -15 -35 -15 -44 0 -20 -66 -127 -105 -171 -82
-90 -203 -154 -334 -175 -82 -14 -251 -7 -316 11 -204 60 -314 163 -406 381
-15 36 -46 162 -43 178 1 10 -1 17 -4 17 -4 0 -8 15 -9 33 -1 17 -4 52 -7 77
-7 63 -8 289 -1 385 5 68 17 138 50 285 3 14 24 63 47 110 84 175 260 304 448
326 25 3 46 7 47 8 3 2 56 -1 138 -9z"/>
<path d="M226 13141 c-2 -3 -3 -724 -2 -1601 l1 -1595 484 0 c357 0 485 3 488
11 2 7 5 299 6 650 l2 639 60 1 c114 1 221 -36 289 -102 37 -36 123 -163 118
-176 -1 -4 1 -8 6 -8 4 0 13 -15 21 -32 8 -18 17 -35 20 -38 3 -3 23 -39 44
-80 50 -100 114 -220 133 -247 8 -13 12 -23 9 -23 -4 0 2 -12 13 -27 10 -16
51 -89 89 -163 118 -226 175 -334 194 -366 10 -17 16 -34 12 -37 -8 -9 -24 -9
587 -9 440 0 525 2 522 13 -2 8 -27 61 -56 119 -81 159 -311 612 -326 640 -20
39 -26 50 -61 120 -17 36 -42 79 -55 97 -13 17 -24 34 -24 38 0 3 -4 11 -10
18 -5 7 -31 39 -57 72 -94 121 -172 189 -272 239 -51 25 -99 46 -106 46 -35 0
-20 20 22 29 62 15 78 19 78 21 0 1 7 3 15 5 9 1 37 12 62 24 26 11 52 21 57
21 6 0 11 5 11 10 0 6 7 10 15 10 41 0 227 156 291 245 16 22 31 42 34 45 11
11 73 145 91 198 34 100 46 193 43 336 -5 250 -89 454 -251 611 -63 61 -66 63
-128 101 -79 47 -179 86 -255 99 -19 3 -42 8 -50 10 -37 10 -115 20 -240 31
-91 8 -1920 12 -1924 5z m1574 -654 c149 -27 219 -72 261 -167 42 -93 42 -181
0 -273 -37 -81 -112 -143 -185 -154 -17 -2 -38 -7 -46 -10 -20 -8 -35 -11 -95
-19 -27 -3 -53 -8 -57 -10 -11 -7 -454 -8 -465 -1 -12 7 -24 57 -14 57 3 0 5
132 4 294 l-2 293 287 -3 c158 -1 298 -4 312 -7z"/>
<path d="M1387 9394 c-1 -1 -56 -5 -122 -8 -66 -3 -133 -9 -150 -12 -16 -3
-43 -7 -60 -9 -84 -10 -284 -57 -310 -73 -5 -4 -15 -7 -21 -8 -12 -2 -153 -71
-193 -95 -129 -75 -321 -308 -356 -431 -2 -5 -3 -9 -5 -10 -1 -2 -3 -10 -5
-18 -1 -8 -10 -40 -20 -70 -23 -75 -28 -281 -9 -375 14 -71 21 -98 24 -102 2
-2 3 -6 4 -10 1 -5 12 -29 23 -56 12 -26 23 -51 24 -55 4 -18 83 -122 132
-172 68 -70 111 -108 142 -122 14 -6 25 -14 25 -17 0 -4 17 -15 37 -26 21 -11
40 -23 43 -26 8 -10 150 -75 226 -104 38 -15 78 -31 89 -35 11 -5 38 -14 60
-20 22 -6 47 -14 55 -17 8 -3 20 -7 25 -9 6 -1 71 -18 145 -38 74 -19 146 -37
160 -40 14 -2 45 -9 70 -16 25 -7 52 -13 60 -15 8 -2 51 -15 94 -30 245 -82
339 -177 339 -340 0 -194 -173 -326 -428 -326 -44 0 -91 3 -105 6 -14 2 -38 7
-55 11 -16 3 -59 20 -94 36 -153 72 -241 195 -283 397 l-21 98 -31 -3 c-30 -3
-119 -9 -271 -18 -38 -3 -113 -7 -165 -11 -52 -3 -128 -8 -170 -11 -88 -5
-225 -14 -260 -18 -31 -3 -32 -18 -9 -146 19 -105 63 -251 86 -287 9 -13 12
-23 8 -23 -3 0 2 -12 13 -27 11 -16 20 -32 21 -38 2 -26 131 -205 195 -270 63
-65 166 -140 236 -172 78 -36 124 -54 153 -60 17 -3 37 -9 42 -13 6 -4 35 -12
65 -18 30 -7 66 -15 80 -18 14 -3 35 -7 47 -9 13 -2 40 -6 62 -10 93 -15 152
-18 411 -19 246 -1 307 2 415 19 70 11 81 13 95 19 8 3 26 7 40 10 85 15 267
87 370 147 132 76 308 258 374 387 14 27 20 31 32 21 8 -6 14 -18 14 -25 0 -8
4 -14 9 -14 4 0 21 -19 36 -42 57 -85 221 -238 340 -316 114 -74 363 -160 518
-178 29 -4 54 -8 57 -9 45 -26 614 -26 735 0 11 3 31 7 45 9 53 8 168 40 230
63 70 26 211 100 221 115 3 5 9 9 13 9 14 -3 119 83 191 155 131 132 267 364
333 574 53 164 55 151 -35 178 -43 13 -82 25 -88 26 -5 2 -12 4 -15 4 -3 1
-32 11 -65 22 -33 11 -61 20 -63 20 -4 -1 -115 32 -137 41 -17 7 -130 41 -145
44 -3 0 -39 12 -80 25 -41 13 -78 24 -82 26 -5 1 -9 2 -10 4 -3 2 -15 5 -65
15 -25 6 -33 4 -34 -6 -4 -39 -9 -60 -33 -132 -116 -349 -294 -484 -621 -471
-96 4 -97 4 -165 24 -25 8 -47 14 -50 14 -20 3 -122 72 -155 104 -44 43 -75
79 -75 87 0 3 -8 18 -17 32 -33 50 -74 182 -87 281 -3 24 -8 47 -10 51 -3 4
-6 32 -7 62 -1 30 -5 71 -9 92 -5 21 -4 40 1 43 5 3 6 10 2 17 -12 20 -4 301
12 397 2 14 6 43 10 65 3 22 9 49 12 60 4 11 8 23 9 28 1 4 2 8 3 10 2 1 4 13
7 26 6 35 80 178 106 209 116 130 205 184 363 218 41 9 211 6 238 -5 15 -6 27
-9 27 -6 0 7 101 -32 113 -44 6 -6 15 -11 19 -11 17 0 108 -73 148 -118 42
-48 105 -169 125 -238 5 -20 8 -21 63 -8 31 7 69 15 85 18 63 13 85 18 167 37
47 11 92 22 100 24 8 2 78 17 155 35 77 17 149 32 160 34 11 2 29 6 40 9 11 3
33 8 49 11 16 3 33 9 38 14 19 19 -104 291 -188 416 -21 33 -43 66 -49 74 -47
72 -197 218 -281 273 -77 51 -191 108 -281 138 -63 22 -223 62 -263 66 -23 2
-84 10 -171 21 -58 7 -287 7 -389 0 -106 -8 -235 -29 -325 -52 -33 -9 -67 -17
-75 -19 -64 -15 -271 -103 -320 -135 -90 -60 -125 -85 -128 -92 -2 -4 -8 -8
-13 -8 -33 0 -237 -218 -292 -313 -25 -42 -47 -54 -47 -27 0 21 -65 149 -105
210 -57 85 -115 146 -196 207 -67 51 -202 121 -274 142 -22 7 -46 14 -53 16
-7 3 -14 5 -17 5 -3 1 -19 6 -37 11 -34 10 -67 18 -103 24 -27 5 -94 16 -125
20 -43 7 -388 23 -393 19z m95 -608 c116 -18 221 -86 281 -183 26 -41 63 -144
70 -193 4 -23 8 -25 58 -24 48 1 207 10 339 19 25 2 114 6 199 10 126 6 152 4
145 -7 -5 -7 -10 -17 -11 -23 -1 -5 -7 -28 -13 -50 -15 -56 -19 -76 -25 -110
-3 -16 -8 -38 -11 -47 -3 -9 -7 -34 -9 -55 -15 -130 -18 -160 -18 -180 -1 -13
-3 -23 -6 -23 -2 0 -25 13 -50 29 -42 27 -197 103 -246 122 -11 4 -29 11 -40
15 -11 4 -22 8 -25 9 -16 4 -118 38 -135 45 -18 7 -67 21 -215 61 -25 7 -49
13 -55 15 -5 1 -59 13 -118 28 -60 14 -122 28 -139 31 -17 3 -34 7 -37 9 -3 2
-23 7 -43 10 -65 10 -222 65 -263 91 -58 38 -88 89 -91 155 -8 181 192 288
458 246z"/>
<path d="M11088 9395 c-2 -1 -39 -5 -83 -9 -158 -12 -312 -43 -455 -92 -86
-29 -300 -133 -300 -146 0 -4 -5 -8 -10 -8 -10 0 -58 -31 -86 -55 -6 -5 -29
-24 -50 -41 -133 -108 -279 -297 -350 -451 -15 -35 -31 -63 -34 -63 -3 0 -6
174 -5 388 0 213 -1 395 -3 404 -4 16 -39 17 -491 15 l-486 -2 -2 -554 c-2
-329 -6 -557 -12 -560 -7 -5 -1030 -6 -1051 -2 -3 1 -5 252 -5 558 l0 558
-488 2 -487 1 2 -1601 3 -1602 485 0 485 0 1 635 c1 349 2 641 3 648 1 9 114
12 531 12 498 0 530 -1 531 -17 0 -10 1 -301 2 -648 l2 -630 487 -1 c333 0
488 3 491 10 1 6 2 187 1 401 0 215 1 394 4 399 3 5 12 -8 21 -30 69 -170 241
-394 390 -506 31 -24 58 -46 59 -50 2 -5 10 -8 17 -8 7 0 15 -3 17 -7 19 -45
349 -185 487 -208 19 -3 38 -8 42 -11 5 -2 30 -7 56 -9 26 -3 59 -8 73 -11
117 -25 586 -25 716 0 12 3 39 7 60 10 21 4 66 14 99 22 33 9 68 17 77 19 9 2
26 9 37 15 12 6 21 9 21 6 0 -8 119 43 203 86 74 38 205 126 255 172 65 58
148 147 188 201 24 33 48 65 53 71 13 16 62 103 91 164 50 103 110 283 126
380 8 45 12 65 14 65 1 0 3 14 5 30 1 17 6 57 10 90 3 33 8 76 10 95 7 58 6
381 0 445 -12 109 -13 120 -25 190 -19 111 -66 281 -94 340 -8 16 -16 37 -18
45 -2 8 -5 17 -8 20 -3 3 -16 28 -29 55 -51 105 -153 246 -246 339 -212 212
-497 351 -825 402 -19 3 -46 7 -60 9 -71 12 -442 28 -452 20z m162 -755 c0 -3
21 -6 48 -6 74 -2 161 -27 237 -68 53 -28 69 -41 132 -106 69 -72 74 -78 102
-136 12 -27 27 -56 31 -65 8 -15 41 -139 55 -203 18 -82 24 -378 11 -507 -11
-105 -22 -180 -36 -239 -16 -67 -52 -164 -64 -172 -6 -4 -8 -8 -4 -8 12 0 -26
-57 -75 -115 -50 -57 -131 -115 -193 -138 -21 -8 -48 -18 -59 -23 -57 -21 -87
-25 -200 -28 -135 -4 -260 22 -327 66 -14 10 -29 18 -33 18 -8 0 -80 55 -106
81 -73 72 -140 204 -175 344 -3 12 -12 59 -19 96 -15 80 -28 430 -16 453 2 5
5 30 6 55 7 138 58 322 111 403 13 21 24 41 24 44 0 8 7 16 63 74 41 42 78 74
97 83 8 4 31 17 50 28 52 32 118 54 184 64 15 2 30 5 31 7 5 5 125 3 125 -2z"/>
</g>
</svg>
